<?xml version="1.0" encoding="utf-8"?><svg xmlns="http://www.w3.org/2000/svg" xmlns:xlink="http://www.w3.org/1999/xlink" width="1536" height="714" preserveAspectRatio="xMidYMid" viewBox="0 0 1536 714" style="z-index:1;margin-right:-2px;display:block;background-repeat-y:initial;background-repeat-x:initial;background-color:rgb(241, 242, 243);animation-play-state:paused" ><g transform="translate(768,357) scale(1,1) translate(-768,-357)" style="transform:matrix(1, 0, 0, 1, 0, 0);animation-play-state:paused" ><defs style="animation-play-state:paused" ><linearGradient id="lg-0.5783039972764314" x1="0" x2="0" y1="0" y2="1" style="animation-play-state:paused" ><stop stop-color="#290908" offset="0.3" style="animation-play-state:paused" ></stop>

  
<stop stop-color="#491212" offset="0.6499999999999999" style="animation-play-state:paused" ></stop>

  
<stop stop-color="#491212" offset="1" style="animation-play-state:paused" ></stop></linearGradient>


<linearGradient id="fg-lg-0.5783039972764314" x1="0" x2="0" y1="0" y2="1" style="animation-play-state:paused" ><stop stop-color="#290908" stop-opacity="1" offset="0.3" style="animation-play-state:paused" ></stop>

  
<stop stop-color="#491212" stop-opacity="0.66" offset="0.6499999999999999" style="animation-play-state:paused" ></stop>

  
<stop stop-color="#491212" stop-opacity="0" offset="1" style="animation-play-state:paused" ></stop></linearGradient>


<style type="text/css" style="animation-play-state:paused" >path { fill: none; stroke: #831a19; stroke-width: 2px }</style></defs>


<rect x="0" y="0" width="1536" height="714" fill="url(#lg-0.5783039972764314)" style="animation-play-state:paused" ></rect>
<path d="M0 214.2 L-10752 714" style="animation-play-state:paused" ></path>
<path d="M11.815384615384616 214.2 L-10574.76923076923 714" style="animation-play-state:paused" ></path>
<path d="M23.630769230769232 214.2 L-10397.538461538461 714" style="animation-play-state:paused" ></path>
<path d="M35.44615384615385 214.2 L-10220.307692307691 714" style="animation-play-state:paused" ></path>
<path d="M47.261538461538464 214.2 L-10043.076923076924 714" style="animation-play-state:paused" ></path>
<path d="M59.07692307692308 214.2 L-9865.846153846154 714" style="animation-play-state:paused" ></path>
<path d="M70.8923076923077 214.2 L-9688.615384615385 714" style="animation-play-state:paused" ></path>
<path d="M82.70769230769231 214.2 L-9511.384615384615 714" style="animation-play-state:paused" ></path>
<path d="M94.52307692307693 214.2 L-9334.153846153846 714" style="animation-play-state:paused" ></path>
<path d="M106.33846153846154 214.2 L-9156.923076923076 714" style="animation-play-state:paused" ></path>
<path d="M118.15384615384616 214.2 L-8979.692307692309 714" style="animation-play-state:paused" ></path>
<path d="M129.96923076923076 214.2 L-8802.461538461539 714" style="animation-play-state:paused" ></path>
<path d="M141.7846153846154 214.2 L-8625.23076923077 714" style="animation-play-state:paused" ></path>
<path d="M153.6 214.2 L-8448 714" style="animation-play-state:paused" ></path>
<path d="M165.41538461538462 214.2 L-8270.76923076923 714" style="animation-play-state:paused" ></path>
<path d="M177.23076923076923 214.2 L-8093.538461538461 714" style="animation-play-state:paused" ></path>
<path d="M189.04615384615386 214.2 L-7916.307692307692 714" style="animation-play-state:paused" ></path>
<path d="M200.86153846153846 214.2 L-7739.076923076923 714" style="animation-play-state:paused" ></path>
<path d="M212.6769230769231 214.2 L-7561.846153846154 714" style="animation-play-state:paused" ></path>
<path d="M224.4923076923077 214.2 L-7384.615384615385 714" style="animation-play-state:paused" ></path>
<path d="M236.30769230769232 214.2 L-7207.384615384615 714" style="animation-play-state:paused" ></path>
<path d="M248.12307692307692 214.2 L-7030.153846153846 714" style="animation-play-state:paused" ></path>
<path d="M259.9384615384615 214.2 L-6852.923076923077 714" style="animation-play-state:paused" ></path>
<path d="M271.75384615384615 214.2 L-6675.692307692308 714" style="animation-play-state:paused" ></path>
<path d="M283.5692307692308 214.2 L-6498.461538461538 714" style="animation-play-state:paused" ></path>
<path d="M295.38461538461536 214.2 L-6321.2307692307695 714" style="animation-play-state:paused" ></path>
<path d="M307.2 214.2 L-6144 714" style="animation-play-state:paused" ></path>
<path d="M319.0153846153846 214.2 L-5966.7692307692305 714" style="animation-play-state:paused" ></path>
<path d="M330.83076923076925 214.2 L-5789.538461538462 714" style="animation-play-state:paused" ></path>
<path d="M342.6461538461538 214.2 L-5612.307692307692 714" style="animation-play-state:paused" ></path>
<path d="M354.46153846153845 214.2 L-5435.076923076923 714" style="animation-play-state:paused" ></path>
<path d="M366.2769230769231 214.2 L-5257.846153846154 714" style="animation-play-state:paused" ></path>
<path d="M378.0923076923077 214.2 L-5080.615384615385 714" style="animation-play-state:paused" ></path>
<path d="M389.9076923076923 214.2 L-4903.384615384615 714" style="animation-play-state:paused" ></path>
<path d="M401.7230769230769 214.2 L-4726.153846153846 714" style="animation-play-state:paused" ></path>
<path d="M413.53846153846155 214.2 L-4548.923076923077 714" style="animation-play-state:paused" ></path>
<path d="M425.3538461538462 214.2 L-4371.692307692308 714" style="animation-play-state:paused" ></path>
<path d="M437.16923076923075 214.2 L-4194.461538461538 714" style="animation-play-state:paused" ></path>
<path d="M448.9846153846154 214.2 L-4017.2307692307695 714" style="animation-play-state:paused" ></path>
<path d="M460.8 214.2 L-3840 714" style="animation-play-state:paused" ></path>
<path d="M472.61538461538464 214.2 L-3662.7692307692305 714" style="animation-play-state:paused" ></path>
<path d="M484.4307692307692 214.2 L-3485.538461538462 714" style="animation-play-state:paused" ></path>
<path d="M496.24615384615385 214.2 L-3308.3076923076924 714" style="animation-play-state:paused" ></path>
<path d="M508.0615384615385 214.2 L-3131.076923076923 714" style="animation-play-state:paused" ></path>
<path d="M519.876923076923 214.2 L-2953.8461538461543 714" style="animation-play-state:paused" ></path>
<path d="M531.6923076923077 214.2 L-2776.6153846153848 714" style="animation-play-state:paused" ></path>
<path d="M543.5076923076923 214.2 L-2599.3846153846152 714" style="animation-play-state:paused" ></path>
<path d="M555.3230769230769 214.2 L-2422.1538461538457 714" style="animation-play-state:paused" ></path>
<path d="M567.1384615384616 214.2 L-2244.923076923076 714" style="animation-play-state:paused" ></path>
<path d="M578.9538461538461 214.2 L-2067.6923076923085 714" style="animation-play-state:paused" ></path>
<path d="M590.7692307692307 214.2 L-1890.461538461539 714" style="animation-play-state:paused" ></path>
<path d="M602.5846153846154 214.2 L-1713.2307692307695 714" style="animation-play-state:paused" ></path>
<path d="M614.4 214.2 L-1536 714" style="animation-play-state:paused" ></path>
<path d="M626.2153846153847 214.2 L-1358.7692307692305 714" style="animation-play-state:paused" ></path>
<path d="M638.0307692307692 214.2 L-1181.538461538461 714" style="animation-play-state:paused" ></path>
<path d="M649.8461538461538 214.2 L-1004.3076923076915 714" style="animation-play-state:paused" ></path>
<path d="M661.6615384615385 214.2 L-827.0769230769238 714" style="animation-play-state:paused" ></path>
<path d="M673.4769230769231 214.2 L-649.8461538461543 714" style="animation-play-state:paused" ></path>
<path d="M685.2923076923076 214.2 L-472.61538461538476 714" style="animation-play-state:paused" ></path>
<path d="M697.1076923076923 214.2 L-295.38461538461524 714" style="animation-play-state:paused" ></path>
<path d="M708.9230769230769 214.2 L-118.15384615384573 714" style="animation-play-state:paused" ></path>
<path d="M720.7384615384616 214.2 L59.07692307692378 714" style="animation-play-state:paused" ></path>
<path d="M732.5538461538462 214.2 L236.30769230769147 714" style="animation-play-state:paused" ></path>
<path d="M744.3692307692307 214.2 L413.538461538461 714" style="animation-play-state:paused" ></path>
<path d="M756.1846153846154 214.2 L590.7692307692305 714" style="animation-play-state:paused" ></path>
<path d="M768 214.2 L768 714" style="animation-play-state:paused" ></path>
<path d="M779.8153846153846 214.2 L945.2307692307695 714" style="animation-play-state:paused" ></path>
<path d="M791.6307692307693 214.2 L1122.461538461539 714" style="animation-play-state:paused" ></path>
<path d="M803.4461538461538 214.2 L1299.6923076923085 714" style="animation-play-state:paused" ></path>
<path d="M815.2615384615384 214.2 L1476.9230769230762 714" style="animation-play-state:paused" ></path>
<path d="M827.0769230769231 214.2 L1654.1538461538457 714" style="animation-play-state:paused" ></path>
<path d="M838.8923076923077 214.2 L1831.3846153846152 714" style="animation-play-state:paused" ></path>
<path d="M850.7076923076924 214.2 L2008.6153846153848 714" style="animation-play-state:paused" ></path>
<path d="M862.5230769230769 214.2 L2185.8461538461543 714" style="animation-play-state:paused" ></path>
<path d="M874.3384615384615 214.2 L2363.076923076924 714" style="animation-play-state:paused" ></path>
<path d="M886.1538461538462 214.2 L2540.3076923076915 714" style="animation-play-state:paused" ></path>
<path d="M897.9692307692308 214.2 L2717.538461538461 714" style="animation-play-state:paused" ></path>
<path d="M909.7846153846153 214.2 L2894.7692307692305 714" style="animation-play-state:paused" ></path>
<path d="M921.6 214.2 L3072 714" style="animation-play-state:paused" ></path>
<path d="M933.4153846153846 214.2 L3249.2307692307695 714" style="animation-play-state:paused" ></path>
<path d="M945.2307692307693 214.2 L3426.461538461539 714" style="animation-play-state:paused" ></path>
<path d="M957.0461538461539 214.2 L3603.6923076923085 714" style="animation-play-state:paused" ></path>
<path d="M968.8615384615384 214.2 L3780.923076923076 714" style="animation-play-state:paused" ></path>
<path d="M980.6769230769231 214.2 L3958.1538461538457 714" style="animation-play-state:paused" ></path>
<path d="M992.4923076923077 214.2 L4135.384615384615 714" style="animation-play-state:paused" ></path>
<path d="M1004.3076923076923 214.2 L4312.615384615385 714" style="animation-play-state:paused" ></path>
<path d="M1016.123076923077 214.2 L4489.846153846154 714" style="animation-play-state:paused" ></path>
<path d="M1027.9384615384615 214.2 L4667.076923076924 714" style="animation-play-state:paused" ></path>
<path d="M1039.753846153846 214.2 L4844.3076923076915 714" style="animation-play-state:paused" ></path>
<path d="M1051.5692307692307 214.2 L5021.538461538461 714" style="animation-play-state:paused" ></path>
<path d="M1063.3846153846155 214.2 L5198.7692307692305 714" style="animation-play-state:paused" ></path>
<path d="M1075.2 214.2 L5376 714" style="animation-play-state:paused" ></path>
<path d="M1087.0153846153846 214.2 L5553.2307692307695 714" style="animation-play-state:paused" ></path>
<path d="M1098.8307692307692 214.2 L5730.461538461539 714" style="animation-play-state:paused" ></path>
<path d="M1110.6461538461538 214.2 L5907.6923076923085 714" style="animation-play-state:paused" ></path>
<path d="M1122.4615384615386 214.2 L6084.923076923078 714" style="animation-play-state:paused" ></path>
<path d="M1134.2769230769231 214.2 L6262.153846153848 714" style="animation-play-state:paused" ></path>
<path d="M1146.0923076923077 214.2 L6439.384615384617 714" style="animation-play-state:paused" ></path>
<path d="M1157.9076923076923 214.2 L6616.615384615383 714" style="animation-play-state:paused" ></path>
<path d="M1169.7230769230769 214.2 L6793.846153846152 714" style="animation-play-state:paused" ></path>
<path d="M1181.5384615384614 214.2 L6971.076923076922 714" style="animation-play-state:paused" ></path>
<path d="M1193.3538461538462 214.2 L7148.3076923076915 714" style="animation-play-state:paused" ></path>
<path d="M1205.1692307692308 214.2 L7325.538461538461 714" style="animation-play-state:paused" ></path>
<path d="M1216.9846153846154 214.2 L7502.7692307692305 714" style="animation-play-state:paused" ></path>
<path d="M1228.8 214.2 L7680 714" style="animation-play-state:paused" ></path>
<path d="M1240.6153846153845 214.2 L7857.2307692307695 714" style="animation-play-state:paused" ></path>
<path d="M1252.4307692307693 214.2 L8034.461538461539 714" style="animation-play-state:paused" ></path>
<path d="M1264.246153846154 214.2 L8211.692307692309 714" style="animation-play-state:paused" ></path>
<path d="M1276.0615384615385 214.2 L8388.923076923078 714" style="animation-play-state:paused" ></path>
<path d="M1287.876923076923 214.2 L8566.153846153848 714" style="animation-play-state:paused" ></path>
<path d="M1299.6923076923076 214.2 L8743.384615384617 714" style="animation-play-state:paused" ></path>
<path d="M1311.5076923076922 214.2 L8920.615384615383 714" style="animation-play-state:paused" ></path>
<path d="M1323.323076923077 214.2 L9097.846153846152 714" style="animation-play-state:paused" ></path>
<path d="M1335.1384615384616 214.2 L9275.076923076922 714" style="animation-play-state:paused" ></path>
<path d="M1346.9538461538461 214.2 L9452.307692307691 714" style="animation-play-state:paused" ></path>
<path d="M1358.7692307692307 214.2 L9629.538461538461 714" style="animation-play-state:paused" ></path>
<path d="M1370.5846153846153 214.2 L9806.76923076923 714" style="animation-play-state:paused" ></path>
<path d="M1382.4 214.2 L9984 714" style="animation-play-state:paused" ></path>
<path d="M1394.2153846153847 214.2 L10161.23076923077 714" style="animation-play-state:paused" ></path>
<path d="M1406.0307692307692 214.2 L10338.461538461539 714" style="animation-play-state:paused" ></path>
<path d="M1417.8461538461538 214.2 L10515.692307692309 714" style="animation-play-state:paused" ></path>
<path d="M1429.6615384615384 214.2 L10692.923076923078 714" style="animation-play-state:paused" ></path>
<path d="M1441.4769230769232 214.2 L10870.153846153848 714" style="animation-play-state:paused" ></path>
<path d="M1453.2923076923078 214.2 L11047.384615384617 714" style="animation-play-state:paused" ></path>
<path d="M1465.1076923076923 214.2 L11224.615384615383 714" style="animation-play-state:paused" ></path>
<path d="M1476.923076923077 214.2 L11401.846153846152 714" style="animation-play-state:paused" ></path>
<path d="M1488.7384615384615 214.2 L11579.076923076922 714" style="animation-play-state:paused" ></path>
<path d="M1500.553846153846 214.2 L11756.307692307691 714" style="animation-play-state:paused" ></path>
<path d="M1512.3692307692309 214.2 L11933.538461538461 714" style="animation-play-state:paused" ></path>
<path d="M1524.1846153846154 214.2 L12110.76923076923 714" style="animation-play-state:paused" ></path>
<path d="M1536 214.2 L12288 714" style="animation-play-state:paused" ></path>
<g transform="matrix(1,0,0,1,0,0)" style="transform:matrix(1, 0, 0, 1, 0, 0);animation-play-state:paused" ><path d="M0 214.2 L1536 214.2" style="animation-play-state:paused" ></path></g>
<g transform="matrix(1,0,0,1,0,0)" style="transform:matrix(1, 0, 0, 1, 0, 0);animation-play-state:paused" ><path d="M0 217.9854674556213 L1536 217.9854674556213" style="animation-play-state:paused" ></path></g>
<g transform="matrix(1,0,0,1,0,0)" style="transform:matrix(1, 0, 0, 1, 0, 0);animation-play-state:paused" ><path d="M0 225.5564023668639 L1536 225.5564023668639" style="animation-play-state:paused" ></path></g>
<g transform="matrix(1,0,0,1,0,0)" style="transform:matrix(1, 0, 0, 1, 0, 0);animation-play-state:paused" ><path d="M0 236.9128047337278 L1536 236.9128047337278" style="animation-play-state:paused" ></path></g>
<g transform="matrix(1,0,0,1,0,0)" style="transform:matrix(1, 0, 0, 1, 0, 0);animation-play-state:paused" ><path d="M0 252.054674556213 L1536 252.054674556213" style="animation-play-state:paused" ></path></g>
<g transform="matrix(1,0,0,1,0,0)" style="transform:matrix(1, 0, 0, 1, 0, 0);animation-play-state:paused" ><path d="M0 270.9820118343195 L1536 270.9820118343195" style="animation-play-state:paused" ></path></g>
<g transform="matrix(1,0,0,1,0,0)" style="transform:matrix(1, 0, 0, 1, 0, 0);animation-play-state:paused" ><path d="M0 293.6948165680473 L1536 293.6948165680473" style="animation-play-state:paused" ></path></g>
<g transform="matrix(1,0,0,1,0,0)" style="transform:matrix(1, 0, 0, 1, 0, 0);animation-play-state:paused" ><path d="M0 320.1930887573964 L1536 320.1930887573964" style="animation-play-state:paused" ></path></g>
<g transform="matrix(1,0,0,1,0,0)" style="transform:matrix(1, 0, 0, 1, 0, 0);animation-play-state:paused" ><path d="M0 350.47682840236683 L1536 350.47682840236683" style="animation-play-state:paused" ></path></g>
<g transform="matrix(1,0,0,1,0,0)" style="transform:matrix(1, 0, 0, 1, 0, 0);animation-play-state:paused" ><path d="M0 384.54603550295855 L1536 384.54603550295855" style="animation-play-state:paused" ></path></g>
<g transform="matrix(1,0,0,1,0,0)" style="transform:matrix(1, 0, 0, 1, 0, 0);animation-play-state:paused" ><path d="M0 422.40071005917156 L1536 422.40071005917156" style="animation-play-state:paused" ></path></g>
<g transform="matrix(1,0,0,1,0,0)" style="transform:matrix(1, 0, 0, 1, 0, 0);animation-play-state:paused" ><path d="M0 464.0408520710059 L1536 464.0408520710059" style="animation-play-state:paused" ></path></g>
<g transform="matrix(1,0,0,1,0,0)" style="transform:matrix(1, 0, 0, 1, 0, 0);animation-play-state:paused" ><path d="M0 509.4664615384615 L1536 509.4664615384615" style="animation-play-state:paused" ></path></g>
<g transform="matrix(1,0,0,1,0,0)" style="transform:matrix(1, 0, 0, 1, 0, 0);animation-play-state:paused" ><path d="M0 558.6775384615385 L1536 558.6775384615385" style="animation-play-state:paused" ></path></g>
<g transform="matrix(1,0,0,1,0,0)" style="transform:matrix(1, 0, 0, 1, 0, 0);animation-play-state:paused" ><path d="M0 611.6740828402367 L1536 611.6740828402367" style="animation-play-state:paused" ></path></g>
<g transform="matrix(1,0,0,1,0,0)" style="transform:matrix(1, 0, 0, 1, 0, 0);animation-play-state:paused" ><path d="M0 668.4560946745562 L1536 668.4560946745562" style="animation-play-state:paused" ></path></g>
<g transform="matrix(1,0,0,1,0,0)" style="transform:matrix(1, 0, 0, 1, 0, 0);animation-play-state:paused" ><path d="M0 729.023573964497 L1536 729.023573964497" style="animation-play-state:paused" ></path></g>
<rect x="0" y="0" width="1536" height="714" fill="url(#fg-lg-0.5783039972764314)" style="animation-play-state:paused" ></rect></g></svg>